<svg width="1130" height="1038" viewBox="0 0 1130 1038" fill="none" xmlns="http://www.w3.org/2000/svg">
<g filter="url(#filter0_f_10_6312)">
<circle cx="560" cy="354" r="154" fill="#57CDA4"/>
</g>
<g filter="url(#filter1_f_10_6312)">
<circle cx="457" cy="457" r="257" fill="#CDF0E4"/>
</g>
<g filter="url(#filter2_f_10_6312)">
<circle cx="766" cy="410" r="114" fill="#FF687D"/>
</g>
<g filter="url(#filter3_f_10_6312)">
<circle cx="745" cy="507" r="185" fill="#A396E2"/>
</g>
<mask id="mask0_10_6312" style="mask-type:alpha" maskUnits="userSpaceOnUse" x="484" y="487" width="551" height="551">
<circle opacity="0.5" cx="759.846" cy="762.846" r="274.846" transform="rotate(60 759.846 762.846)" fill="#E3E9F5"/>
</mask>
<g mask="url(#mask0_10_6312)">
<path fill-rule="evenodd" clip-rule="evenodd" d="M332.345 933.883L694.451 306.697L695.26 307.164L333.154 934.35L332.345 933.883ZM336.387 936.216L698.493 309.03L699.301 309.497L337.195 936.683L336.387 936.216ZM702.534 311.363L340.428 938.549L341.236 939.016L703.342 311.83L702.534 311.363ZM344.469 940.882L706.575 313.696L707.383 314.163L345.277 941.349L344.469 940.882ZM710.616 316.03L348.51 943.216L349.318 943.682L711.424 316.496L710.616 316.03ZM352.551 945.549L714.657 318.363L715.465 318.829L353.359 946.015L352.551 945.549ZM718.699 320.696L356.593 947.882L357.401 948.349L719.507 321.163L718.699 320.696ZM360.634 950.215L722.74 323.029L723.548 323.496L361.442 950.682L360.634 950.215ZM726.781 325.362L364.675 952.548L365.483 953.015L727.589 325.829L726.781 325.362ZM368.716 954.881L730.822 327.695L731.63 328.162L369.524 955.348L368.716 954.881ZM734.863 330.029L372.757 957.215L373.565 957.681L735.671 330.495L734.863 330.029ZM376.798 959.548L738.904 332.362L739.712 332.828L377.606 960.014L376.798 959.548ZM742.945 334.695L380.839 961.881L381.648 962.348L743.754 335.162L742.945 334.695ZM384.88 964.214L746.986 337.028L747.795 337.495L385.689 964.681L384.88 964.214ZM751.027 339.361L388.921 966.547L389.73 967.014L751.836 339.828L751.027 339.361ZM392.963 968.88L755.069 341.694L755.877 342.161L393.771 969.347L392.963 968.88ZM759.11 344.028L397.004 971.214L397.812 971.68L759.918 344.494L759.11 344.028ZM401.045 973.547L763.151 346.361L763.959 346.827L401.853 974.013L401.045 973.547ZM767.192 348.694L405.086 975.88L405.894 976.346L768 349.16L767.192 348.694ZM409.127 978.213L771.233 351.027L772.041 351.494L409.935 978.68L409.127 978.213ZM775.275 353.36L413.169 980.546L413.977 981.013L776.083 353.827L775.275 353.36ZM417.21 982.879L779.316 355.693L780.124 356.16L418.018 983.346L417.21 982.879ZM783.357 358.027L421.251 985.212L422.059 985.679L784.165 358.493L783.357 358.027ZM425.292 987.546L787.398 360.36L788.206 360.826L426.1 988.012L425.292 987.546ZM791.439 362.693L429.333 989.879L430.141 990.345L792.247 363.159L791.439 362.693ZM433.374 992.212L795.48 365.026L796.289 365.493L434.183 992.678L433.374 992.212ZM799.521 367.359L437.415 994.545L438.224 995.012L800.33 367.826L799.521 367.359ZM441.456 996.878L803.562 369.692L804.371 370.159L442.265 997.345L441.456 996.878ZM807.604 372.025L445.498 999.211L446.306 999.678L808.412 372.492L807.604 372.025ZM449.539 1001.54L811.645 374.358L812.453 374.825L450.347 1002.01L449.539 1001.54ZM815.686 376.692L453.58 1003.88L454.388 1004.34L816.494 377.158L815.686 376.692ZM457.621 1006.21L819.727 379.025L820.535 379.492L458.429 1006.68L457.621 1006.21ZM823.768 381.358L461.662 1008.54L462.47 1009.01L824.576 381.825L823.768 381.358ZM465.703 1010.88L827.809 383.691L828.617 384.158L466.512 1011.34L465.703 1010.88ZM831.85 386.024L469.744 1013.21L470.553 1013.68L832.659 386.491L831.85 386.024ZM473.786 1015.54L835.892 388.357L836.7 388.824L474.594 1016.01L473.786 1015.54ZM839.933 390.691L477.827 1017.88L478.635 1018.34L840.741 391.157L839.933 390.691ZM481.868 1020.21L843.974 393.024L844.782 393.491L482.676 1020.68L481.868 1020.21ZM848.015 395.357L485.909 1022.54L486.717 1023.01L848.823 395.824L848.015 395.357ZM489.95 1024.88L852.056 397.69L852.864 398.157L490.758 1025.34L489.95 1024.88ZM856.098 400.023L493.992 1027.21L494.8 1027.68L856.906 400.49L856.098 400.023ZM498.033 1029.54L860.139 402.356L860.947 402.823L498.841 1030.01L498.033 1029.54ZM864.18 404.69L502.074 1031.88L502.882 1032.34L864.988 405.156L864.18 404.69ZM506.115 1034.21L868.221 407.023L869.029 407.489L506.923 1034.68L506.115 1034.21ZM872.262 409.356L510.156 1036.54L510.964 1037.01L873.07 409.823L872.262 409.356ZM514.197 1038.87L876.303 411.689L877.111 412.156L515.005 1039.34L514.197 1038.87ZM880.344 414.022L518.238 1041.21L519.047 1041.67L881.153 414.489L880.344 414.022ZM522.279 1043.54L884.385 416.355L885.194 416.822L523.088 1044.01L522.279 1043.54ZM888.427 418.689L526.321 1045.87L527.129 1046.34L889.235 419.155L888.427 418.689ZM530.362 1048.21L892.468 421.022L893.276 421.488L531.17 1048.67L530.362 1048.21ZM896.509 423.355L534.403 1050.54L535.211 1051.01L897.317 423.821L896.509 423.355ZM538.444 1052.87L900.55 425.688L901.358 426.155L539.252 1053.34L538.444 1052.87ZM904.591 428.021L542.485 1055.21L543.293 1055.67L905.399 428.488L904.591 428.021ZM546.526 1057.54L908.632 430.354L909.441 430.821L547.335 1058.01L546.526 1057.54ZM912.674 432.688L550.568 1059.87L551.376 1060.34L913.482 433.154L912.674 432.688ZM554.608 1062.21L916.714 435.021L917.523 435.487L555.417 1062.67L554.608 1062.21ZM920.756 437.354L558.65 1064.54L559.458 1065.01L921.564 437.82L920.756 437.354ZM562.691 1066.87L924.797 439.687L925.605 440.154L563.499 1067.34L562.691 1066.87ZM928.838 442.02L566.732 1069.21L567.54 1069.67L929.646 442.487L928.838 442.02ZM570.773 1071.54L932.879 444.353L933.687 444.82L571.581 1072.01L570.773 1071.54ZM936.92 446.686L574.814 1073.87L575.623 1074.34L937.729 447.153L936.92 446.686ZM578.855 1076.21L940.961 449.02L941.77 449.486L579.664 1076.67L578.855 1076.21ZM945.003 451.353L582.897 1078.54L583.705 1079.01L945.811 451.819L945.003 451.353ZM586.938 1080.87L949.044 453.686L949.852 454.153L587.746 1081.34L586.938 1080.87ZM953.085 456.019L590.979 1083.21L591.787 1083.67L953.893 456.486L953.085 456.019ZM595.02 1085.54L957.126 458.352L957.934 458.819L595.828 1086L595.02 1085.54ZM961.167 460.685L599.061 1087.87L599.87 1088.34L961.976 461.152L961.167 460.685ZM603.102 1090.2L965.208 463.018L966.017 463.485L603.911 1090.67L603.102 1090.2ZM969.249 465.352L607.143 1092.54L607.952 1093L970.058 465.818L969.249 465.352ZM611.185 1094.87L973.291 467.685L974.099 468.151L611.993 1095.34L611.185 1094.87ZM977.332 470.018L615.226 1097.2L616.034 1097.67L978.14 470.485L977.332 470.018ZM619.267 1099.54L981.373 472.351L982.181 472.818L620.075 1100L619.267 1099.54ZM985.414 474.684L623.308 1101.87L624.116 1102.34L986.222 475.151L985.414 474.684ZM627.349 1104.2L989.455 477.017L990.263 477.484L628.157 1104.67L627.349 1104.2ZM993.496 479.351L631.39 1106.54L632.199 1107L994.304 479.817L993.496 479.351ZM635.432 1108.87L997.538 481.684L998.346 482.15L636.24 1109.34L635.432 1108.87ZM1001.58 484.017L639.473 1111.2L640.281 1111.67L1002.39 484.484L1001.58 484.017ZM643.514 1113.54L1005.62 486.35L1006.43 486.817L644.322 1114L643.514 1113.54ZM1009.66 488.683L647.555 1115.87L648.363 1116.34L1010.47 489.15L1009.66 488.683ZM651.596 1118.2L1013.7 491.016L1014.51 491.483L652.404 1118.67L651.596 1118.2ZM1017.74 493.35L655.637 1120.54L656.446 1121L1018.55 493.816L1017.74 493.35ZM659.678 1122.87L1021.78 495.683L1022.59 496.149L660.487 1123.34L659.678 1122.87ZM1025.83 498.016L663.72 1125.2L664.528 1125.67L1026.63 498.483L1025.83 498.016ZM667.761 1127.53L1029.87 500.349L1030.67 500.816L668.569 1128L667.761 1127.53ZM1033.91 502.682L671.802 1129.87L672.61 1130.33L1034.72 503.149L1033.91 502.682ZM675.843 1132.2L1037.95 505.015L1038.76 505.482L676.651 1132.67L675.843 1132.2ZM1041.99 507.348L679.884 1134.53L680.692 1135L1042.8 507.815L1041.99 507.348ZM683.925 1136.87L1046.03 509.682L1046.84 510.148L684.734 1137.33L683.925 1136.87ZM1050.07 512.015L687.966 1139.2L688.775 1139.67L1050.88 512.481L1050.07 512.015ZM692.007 1141.53L1054.11 514.348L1054.92 514.815L692.816 1142L692.007 1141.53ZM1058.15 516.681L696.049 1143.87L696.857 1144.33L1058.96 517.148L1058.15 516.681ZM700.09 1146.2L1062.2 519.014L1063 519.481L700.898 1146.67L700.09 1146.2ZM1066.24 521.347L704.131 1148.53L704.939 1149L1067.05 521.814L1066.24 521.347ZM708.172 1150.87L1070.28 523.681L1071.09 524.147L708.98 1151.33L708.172 1150.87ZM1074.32 526.014L712.213 1153.2L713.022 1153.67L1075.13 526.48L1074.32 526.014ZM716.255 1155.53L1078.36 528.347L1079.17 528.814L717.063 1156L716.255 1155.53ZM1082.4 530.68L720.296 1157.87L721.104 1158.33L1083.21 531.147L1082.4 530.68ZM724.337 1160.2L1086.44 533.013L1087.25 533.48L725.145 1160.67L724.337 1160.2ZM1090.48 535.346L728.378 1162.53L729.186 1163L1091.29 535.813L1090.48 535.346ZM732.419 1164.87L1094.53 537.68L1095.33 538.146L733.227 1165.33L732.419 1164.87ZM1098.57 540.013L736.46 1167.2L737.269 1167.67L1099.37 540.479L1098.57 540.013ZM740.501 1169.53L1102.61 542.346L1103.42 542.813L741.31 1170L740.501 1169.53ZM1106.65 544.679L744.542 1171.87L745.351 1172.33L1107.46 545.146L1106.65 544.679ZM748.584 1174.2L1110.69 547.012L1111.5 547.479L749.392 1174.66L748.584 1174.2ZM1114.73 549.345L752.625 1176.53L753.433 1177L1115.54 549.812L1114.73 549.345ZM756.666 1178.86L1118.77 551.679L1119.58 552.145L757.474 1179.33L756.666 1178.86ZM1122.81 554.012L760.707 1181.2L761.515 1181.66L1123.62 554.478L1122.81 554.012ZM764.748 1183.53L1126.85 556.345L1127.66 556.811L765.556 1184L764.748 1183.53ZM1130.9 558.678L768.789 1185.86L769.598 1186.33L1131.7 559.145L1130.9 558.678ZM772.83 1188.2L1134.94 561.011L1135.74 561.478L773.639 1188.66L772.83 1188.2ZM1138.98 563.344L776.872 1190.53L777.68 1191L1139.79 563.811L1138.98 563.344ZM780.913 1192.86L1143.02 565.677L1143.83 566.144L781.721 1193.33L780.913 1192.86ZM1147.06 568.011L784.954 1195.2L785.762 1195.66L1147.87 568.477L1147.06 568.011ZM788.995 1197.53L1151.1 570.344L1151.91 570.81L789.803 1198L788.995 1197.53ZM1155.14 572.677L793.036 1199.86L793.844 1200.33L1155.95 573.144L1155.14 572.677ZM797.078 1202.2L1159.18 575.01L1159.99 575.477L797.886 1202.66L797.078 1202.2ZM1163.22 577.343L801.119 1204.53L801.927 1205L1164.03 577.81L1163.22 577.343ZM805.16 1206.86L1167.27 579.676L1168.07 580.143L805.968 1207.33L805.16 1206.86ZM1171.31 582.009L809.201 1209.2L810.009 1209.66L1172.11 582.476L1171.31 582.009ZM813.242 1211.53L1175.35 584.343L1176.16 584.809L814.05 1212L813.242 1211.53ZM1179.39 586.676L817.283 1213.86L818.091 1214.33L1180.2 587.142L1179.39 586.676ZM821.324 1216.19L1183.43 589.009L1184.24 589.476L822.133 1216.66L821.324 1216.19ZM1187.47 591.342L825.366 1218.53L826.174 1218.99L1188.28 591.809L1187.47 591.342Z" fill="#86CEFF" fill-opacity="0.3"/>
</g>
<defs>
<filter id="filter0_f_10_6312" x="206" y="0" width="708" height="708" filterUnits="userSpaceOnUse" color-interpolation-filters="sRGB">
<feFlood flood-opacity="0" result="BackgroundImageFix"/>
<feBlend mode="normal" in="SourceGraphic" in2="BackgroundImageFix" result="shape"/>
<feGaussianBlur stdDeviation="100" result="effect1_foregroundBlur_10_6312"/>
</filter>
<filter id="filter1_f_10_6312" x="0" y="0" width="914" height="914" filterUnits="userSpaceOnUse" color-interpolation-filters="sRGB">
<feFlood flood-opacity="0" result="BackgroundImageFix"/>
<feBlend mode="normal" in="SourceGraphic" in2="BackgroundImageFix" result="shape"/>
<feGaussianBlur stdDeviation="100" result="effect1_foregroundBlur_10_6312"/>
</filter>
<filter id="filter2_f_10_6312" x="452" y="96" width="628" height="628" filterUnits="userSpaceOnUse" color-interpolation-filters="sRGB">
<feFlood flood-opacity="0" result="BackgroundImageFix"/>
<feBlend mode="normal" in="SourceGraphic" in2="BackgroundImageFix" result="shape"/>
<feGaussianBlur stdDeviation="100" result="effect1_foregroundBlur_10_6312"/>
</filter>
<filter id="filter3_f_10_6312" x="360" y="122" width="770" height="770" filterUnits="userSpaceOnUse" color-interpolation-filters="sRGB">
<feFlood flood-opacity="0" result="BackgroundImageFix"/>
<feBlend mode="normal" in="SourceGraphic" in2="BackgroundImageFix" result="shape"/>
<feGaussianBlur stdDeviation="100" result="effect1_foregroundBlur_10_6312"/>
</filter>
</defs>
</svg>
